<?xml version="1.0" encoding="UTF-8"?>
<svg version="1.1" xmlns="http://www.w3.org/2000/svg" width="1024" height="176">
<path d="M0 0 C337.92 0 675.84 0 1024 0 C1024 58.08 1024 116.16 1024 176 C686.08 176 348.16 176 0 176 C0 117.92 0 59.84 0 0 Z " fill="#CE1F28" transform="translate(0,0)"/>
<path d="M0 0 C12.4678125 -0.12375 12.4678125 -0.12375 25.1875 -0.25 C27.78391357 -0.28641602 30.38032715 -0.32283203 33.05541992 -0.36035156 C59.30188503 -0.57699639 59.30188503 -0.57699639 69.5625 7.1875 C74.62594865 12.21883376 77.12728629 17.81785003 77.5625 24.9375 C77.27362808 31.33252667 74.7324067 37.02708806 70.40234375 41.73828125 C66.66285211 45 66.66285211 45 64 45 C64 45.66 64 46.32 64 47 C65.051875 47.2475 66.10375 47.495 67.1875 47.75 C70.89296912 48.83852815 73.22644375 50.22644375 76 53 C76.46792969 53.4640625 76.93585938 53.928125 77.41796875 54.40625 C82.56305537 60.74753323 82.05384978 69.16860673 81.32958984 76.91503906 C80.15281148 84.35925183 75.26779549 89.42006294 69.41796875 93.74609375 C61.1829306 98.01660626 53.61228367 98.40975222 44.43359375 98.29296875 C43.30248169 98.28994751 42.17136963 98.28692627 41.00598145 98.28381348 C36.81639363 98.26822209 32.6269368 98.22633882 28.4375 98.1875 C19.053125 98.125625 9.66875 98.06375 0 98 C0 65.66 0 33.32 0 0 Z " fill="#FDFAFA" transform="translate(645,33)"/>
<path d="M0 0 C0 7.92 0 15.84 0 24 C9.9 24 19.8 24 30 24 C31.95739883 29.72909684 33.91466226 35.45823956 35.87158203 41.1875 C36.5368672 43.13511828 37.2022309 45.08270973 37.86767578 47.03027344 C38.82605479 49.8352153 39.78414811 52.64025462 40.7421875 55.4453125 C41.03809784 56.31116974 41.33400818 57.17702698 41.6388855 58.06912231 C43.10890138 62.37411222 44.56882074 66.68189262 46 71 C48.1078821 67.83817685 49.08610841 65.09839139 50.27734375 61.49609375 C50.48935928 60.85817398 50.70137482 60.22025421 50.91981506 59.56300354 C51.36816504 58.21123769 51.81435766 56.85875465 52.25854492 55.50561523 C52.92758405 53.46770423 53.60279302 51.43192801 54.27929688 49.39648438 C56.40657008 42.97414339 58.48820119 36.54795309 60.32641602 30.03540039 C61 28 61 28 63 24 C69.27 24 75.54 24 82 24 C81.21744453 27.91277736 80.29969438 31.22472538 78.9609375 34.9453125 C78.54875977 36.09547852 78.13658203 37.24564453 77.71191406 38.43066406 C77.27073242 39.64979492 76.82955078 40.86892578 76.375 42.125 C75.91873256 43.3928271 75.4626795 44.66073137 75.00683594 45.92871094 C71.39126761 55.97217031 67.72794838 65.99772891 64 76 C63.75330566 76.66290039 63.50661133 77.32580078 63.25244141 78.00878906 C62.04379503 81.25385562 60.82800219 84.49599116 59.6015625 87.734375 C58.3807264 90.9640837 57.19840914 94.20646319 56.0234375 97.453125 C55.32832322 99.34382289 54.63301241 101.23444853 53.9375 103.125 C53.62111572 104.01429199 53.30473145 104.90358398 52.97875977 105.81982422 C50.32758988 112.96172349 47.16450646 118.58833026 40 122 C33.10645052 124.72869667 23.00232591 125.83700792 16 123 C14.90493508 119.71480525 14.90039392 117.26336585 14.9375 113.8125 C14.94652344 112.72582031 14.95554687 111.63914062 14.96484375 110.51953125 C14.97644531 109.68808594 14.98804688 108.85664063 15 108 C15.80824219 108.04640625 16.61648438 108.0928125 17.44921875 108.140625 C24.00018034 108.4617806 24.00018034 108.4617806 30.0625 106.375 C33.41571206 102.26461103 35.32679768 99.13370211 34.9375 93.75 C34.38594307 90.39573211 33.4879605 87.4654664 32.18457031 84.32958984 C31.82633179 83.45550476 31.46809326 82.58141968 31.09899902 81.68084717 C30.73632935 80.7961676 30.37365967 79.91148804 30 79 C27.58254873 72.85527896 25.22599544 66.6865521 22.86230469 60.52099609 C22.1162514 58.57857202 21.36752029 56.63717448 20.61621094 54.69677734 C19.52423943 51.87577189 18.44090664 49.05158416 17.359375 46.2265625 C17.02194275 45.35987946 16.6845105 44.49319641 16.33685303 43.60025024 C16.02943176 42.7919577 15.7220105 41.98366516 15.40527344 41.15087891 C15.13309998 40.44379791 14.86092651 39.73671692 14.58050537 39.00820923 C14 37 14 37 14 33 C13.34 33 12.68 33 12 33 C12 34.98 12 36.96 12 39 C8.04 39 4.08 39 0 39 C0.11792986 44.67845532 0.24215403 50.35672395 0.37231445 56.03491211 C0.41573041 57.96814185 0.45740042 59.90141159 0.49731445 61.8347168 C0.55485631 64.60738202 0.6185962 67.37984457 0.68359375 70.15234375 C0.70030624 71.02213364 0.71701874 71.89192352 0.73423767 72.78807068 C0.45026213 76.71115966 0.45026213 76.71115966 2 80 C5.8361222 80.14475933 9.32307787 80.17661508 13 79 C13.84681133 84.08086796 14.09038099 88.84828377 14 94 C8.02245975 97.44858091 0.74771149 97.74974572 -6 97 C-11.27504806 95.33799856 -15.08013419 92.78857993 -18 88 C-19.43694684 83.07357928 -19.12566616 77.96979358 -19.09765625 72.88671875 C-19.0962413 71.91716751 -19.09482635 70.94761627 -19.09336853 69.94868469 C-19.08778513 66.86159133 -19.07523564 63.77457133 -19.0625 60.6875 C-19.05748286 58.59049584 -19.05292032 56.49349054 -19.04882812 54.39648438 C-19.03782112 49.26429479 -19.02056788 44.13215982 -19 39 C-21.31 39 -23.62 39 -26 39 C-26.33 39.99 -26.66 40.98 -27 42 C-27.56847656 41.84273437 -28.13695312 41.68546875 -28.72265625 41.5234375 C-32.52253539 40.6500519 -36.13615695 40.4066241 -40 41 C-44.29331827 43.92311031 -45.44777585 46.75614629 -46.6005249 51.72070312 C-47.3012143 55.71864735 -47.35937115 59.69931136 -47.4140625 63.75 C-47.43342865 64.64871826 -47.4527948 65.54743652 -47.4727478 66.47338867 C-47.53204608 69.31549896 -47.57872808 72.15765085 -47.625 75 C-47.66322567 76.93881876 -47.70228 78.87762138 -47.7421875 80.81640625 C-47.83925047 85.54418197 -47.91921252 90.27180673 -48 95 C-54.27 95 -60.54 95 -67 95 C-67 71.57 -67 48.14 -67 24 C-61.06 24 -55.12 24 -49 24 C-48.67 26.31 -48.34 28.62 -48 31 C-47.51789063 30.50628906 -47.03578125 30.01257813 -46.5390625 29.50390625 C-45.90742188 28.86324219 -45.27578125 28.22257812 -44.625 27.5625 C-43.99851562 26.92441406 -43.37203125 26.28632812 -42.7265625 25.62890625 C-38.96471955 22.07983722 -35.06079439 22.86281353 -30.1328125 22.8984375 C-26.35600539 23.02087763 -22.73263492 23.42574847 -19 24 C-19.17402344 23.09378906 -19.34804688 22.18757813 -19.52734375 21.25390625 C-19.99089365 17.08195715 -20.08513308 14.07461039 -19 10 C-14.97596584 5.72352559 -9.26678073 3.38484565 -4 1 C-2 0 -2 0 0 0 Z " fill="#FEFAFA" transform="translate(526,36)"/>
<path d="M0 0 C8.7545214 6.39566424 16.09952898 14.37418043 19 25 C20.76390867 37.81033599 19.44385669 50.25920005 11.8984375 60.98828125 C4.61490546 69.75461705 -4.51096432 75.89430741 -16 77 C-29.11378084 77.92053007 -38.73118182 75.26695471 -49 67 C-56.03001603 60.73135755 -59.1383041 53.86757269 -62 45 C-62.495 43.515 -62.495 43.515 -63 42 C-63.59584873 34.36855282 -62.92150712 28.05002188 -60 21 C-59.62875 19.865625 -59.2575 18.73125 -58.875 17.5625 C-55.05173611 8.95515199 -46.28172654 1.03693765 -37.875 -3.02734375 C-25.74880892 -7.47224825 -11.14164724 -6.37088871 0 0 Z " fill="#F9E7E8" transform="translate(149,23)"/>
<path d="M0 0 C5.94 0 11.88 0 18 0 C18 11.22 18 22.44 18 34 C18.66 34 19.32 34 20 34 C20 33.34 20 32.68 20 32 C21.8984375 30.52734375 21.8984375 30.52734375 24.375 28.9375 C25.18710937 28.41027344 25.99921875 27.88304688 26.8359375 27.33984375 C32.67481987 23.72479564 39.33956315 24.51893081 46 25 C49.39654295 25.84551211 52.0704952 27.10268325 55 29 C55.62261719 29.38929687 56.24523437 29.77859375 56.88671875 30.1796875 C63.06801289 34.71174264 66.66116724 42.10163585 68.65234375 49.38671875 C70.55852852 63.71523124 68.69697562 76.63552201 61 89 C56.33643356 94.34476153 50.11570174 98.17259282 43 99 C42.37609375 99.08765625 41.7521875 99.1753125 41.109375 99.265625 C33.37153498 99.87797205 26.00168442 96.40227599 20.1484375 91.42578125 C19 90 19 90 19 88 C18.34 88 17.68 88 17 88 C17 90.97 17 93.94 17 97 C11.39 97 5.78 97 0 97 C0 64.99 0 32.98 0 0 Z " fill="#FEFBFC" transform="translate(314,34)"/>
<path d="M0 0 C8.16750615 5.64014848 14.35827027 13.3878338 17 23 C17.4405873 26.0963026 17.52448425 29.12523787 17.5 32.25 C17.49572998 33.07975342 17.49145996 33.90950684 17.48706055 34.7644043 C17.21970623 44.48835488 14.11507978 53.20833294 7 60 C-3.60936633 67.97178732 -12.9962639 71.16129395 -26.2578125 69.76171875 C-36.54934786 67.93580119 -44.99588729 62.48145434 -51 54 C-56.40922194 45.60637975 -57.16808177 33.9201483 -55.53515625 24.24609375 C-53.14330682 14.07011895 -47.70958613 5.87744799 -39 0 C-27.64705027 -6.35314074 -11.35101119 -6.37084899 0 0 Z " fill="#FEFBFB" transform="translate(864,63)"/>
<path d="M0 0 C6.86176689 5.45977797 11.94833329 13.57585541 13.4765625 22.30859375 C14.18274687 34.72430036 12.54124882 45.08721417 5.015625 55.2890625 C-1.77201805 62.78858031 -11.21978115 66.74677403 -21.1640625 67.51171875 C-32.72402468 67.71938274 -41.56761697 64.47398013 -50.2421875 56.78515625 C-58.27462534 48.38388198 -60.22150585 38.33305515 -60.046875 27.11083984 C-59.78574826 21.09162678 -58.86979844 16.40632116 -55.5234375 11.30859375 C-55.09933594 10.54417969 -54.67523437 9.77976562 -54.23828125 8.9921875 C-49.70259498 1.32321378 -42.86925294 -3.72156323 -34.29296875 -6.21484375 C-21.73331759 -8.37602491 -10.73274661 -7.19393078 0 0 Z " fill="#FEFBFB" transform="translate(791.5234375,65.69140625)"/>
<path d="M0 0 C6.27 0 12.54 0 19 0 C19.33 16.83 19.66 33.66 20 51 C26.05764012 43.69871866 26.05764012 43.69871866 31.6953125 36.08203125 C34.99886678 31.46177463 37.99097201 27.61277437 43.78613281 26.43261719 C50.55070467 25.88010249 57.26187178 26.2763449 64 27 C60.24215489 31.42596111 56.43070111 35.7892955 52.5 40.0625 C52.0258667 40.5790918 51.5517334 41.09568359 51.06323242 41.62792969 C47.79238181 45.17699573 44.45878927 48.63469152 41 52 C42.25684661 56.11660618 43.78182386 59.64522142 45.9765625 63.34375 C46.56163574 64.33681152 47.14670898 65.32987305 47.74951172 66.35302734 C48.67787842 67.91077881 48.67787842 67.91077881 49.625 69.5 C50.89094858 71.64824685 52.15657495 73.79668361 53.421875 75.9453125 C54.03482422 76.98204102 54.64777344 78.01876953 55.27929688 79.08691406 C57.49580914 82.83938629 59.69645916 86.60037185 61.875 90.375 C62.49117187 91.43460937 63.10734375 92.49421875 63.7421875 93.5859375 C65 96 65 96 65 98 C58.4 98 51.8 98 45 98 C43.95199219 96.08574219 42.90398438 94.17148438 41.82421875 92.19921875 C40.80275032 90.34184457 39.7795144 88.48545484 38.75610352 86.62915039 C38.04721791 85.34110671 37.34016669 84.05205166 36.63500977 82.76196289 C35.61958708 80.90500597 34.59756655 79.05181736 33.57421875 77.19921875 C32.96151123 76.08377686 32.34880371 74.96833496 31.7175293 73.8190918 C30.28967432 71.47546117 29.04998155 69.7865301 27 68 C23.34302787 70.71308361 20.44259846 73.19773908 19.32861328 77.73388672 C19.08962326 80.81852537 19.02985569 83.84397192 19.0625 86.9375 C19.04638672 88.00291016 19.03027344 89.06832031 19.01367188 90.16601562 C18.97854503 92.77711146 18.98507835 95.38871053 19 98 C12.73 98 6.46 98 0 98 C0 65.66 0 33.32 0 0 Z " fill="#FDFAFA" transform="translate(888,33)"/>
<path d="M0 0 C7.06683471 4.35806344 11.43950202 10.17031066 14.21484375 17.93359375 C15.52734375 23.55859375 15.52734375 23.55859375 15.52734375 38.55859375 C0.34734375 38.55859375 -14.83265625 38.55859375 -30.47265625 38.55859375 C-28.46775687 48.71470975 -28.46775687 48.71470975 -24.97265625 52.74609375 C-20.09329194 55.27290741 -15.86053814 55.60167454 -10.47265625 54.55859375 C-7.24920953 52.12456255 -5.69795915 49.8965481 -3.47265625 46.55859375 C9.19704762 47.52214728 9.19704762 47.52214728 14.52734375 48.55859375 C13.49890645 55.13365921 10.4363165 60.30031227 5.15234375 64.40234375 C-4.50874609 70.41107036 -14.00790249 71.97334894 -25.25390625 70.09375 C-33.82624321 67.85806335 -40.43919977 62.829142 -45.47265625 55.55859375 C-49.30033802 48.17327603 -50.182179 41.42675361 -50.09765625 33.18359375 C-50.09000244 32.08031738 -50.08234863 30.97704102 -50.07446289 29.84033203 C-49.84468055 21.42992466 -48.79345976 15.3187277 -43.47265625 8.55859375 C-42.94285156 7.87152344 -42.41304688 7.18445313 -41.8671875 6.4765625 C-31.09764591 -5.67434547 -14.13302448 -6.84356329 0 0 Z " fill="#FEFBFB" transform="translate(435.47265625,62.44140625)"/>
<path d="M0 0 C7.71345187 4.30949574 12.00611629 9.62880219 15.76171875 17.54296875 C16.25671875 18.53296875 16.25671875 18.53296875 16.76171875 19.54296875 C17.52863368 29.53477464 17.74425136 38.0484335 11.76171875 46.54296875 C11.18550781 47.41308594 11.18550781 47.41308594 10.59765625 48.30078125 C6.21098653 54.23919808 -0.26599358 57.60001312 -7.23828125 59.54296875 C-18.06481258 60.64614611 -26.85369761 59.25780232 -35.48828125 52.48046875 C-41.94351466 46.23516163 -45.44613529 39.86489955 -45.89819336 30.85205078 C-46.01767745 20.5806483 -43.97353534 13.32393083 -36.86328125 5.66796875 C-25.99897825 -4.3697025 -13.37926531 -6.24365714 0 0 Z " fill="#F9E6E7" transform="translate(55.23828125,52.45703125)"/>
<path d="M0 0 C0.99837891 -0.01160156 1.99675781 -0.02320313 3.02539062 -0.03515625 C11.74083036 -0.00077582 18.60752048 1.81101639 25.5625 7.375 C28.93777224 11.19726775 30.75157864 14.29148222 31.5625 19.375 C29.12568413 19.87854867 26.68814561 20.37796756 24.25 20.875 C23.55970703 21.01808594 22.86941406 21.16117188 22.15820312 21.30859375 C19.23725227 21.90125044 16.55141878 22.375 13.5625 22.375 C13.10875 21.611875 12.655 20.84875 12.1875 20.0625 C10.2705591 16.89217466 8.87217207 15.98561397 5.5625 14.375 C2.57766496 13.9410393 2.57766496 13.9410393 -0.5 14.0625 C-1.52222656 14.06636719 -2.54445313 14.07023437 -3.59765625 14.07421875 C-6.37882634 14.3687856 -8.06364466 14.94613264 -10.4375 16.375 C-10.4375 18.355 -10.4375 20.335 -10.4375 22.375 C-4.01284017 24.98371717 2.36605489 26.84695615 9.125 28.3125 C18.70535762 30.45177246 26.78735144 32.99171984 32.5625 41.375 C34.75907129 45.76814258 33.88994669 51.58024484 33.5625 56.375 C31.13489114 63.17230481 27.09921157 67.52260353 20.625 70.625 C19.09552734 71.37523437 19.09552734 71.37523437 17.53515625 72.140625 C8.26078722 75.99174276 -4.74722617 75.81791852 -14.1953125 72.4140625 C-21.04195148 69.2412298 -26.99942043 65.28213284 -30.4375 58.375 C-31.3125 55 -31.3125 55 -31.4375 52.375 C-29.29281351 50.23031351 -24.85305106 50.6354212 -21.875 50.3125 C-21.06869141 50.22162109 -20.26238281 50.13074219 -19.43164062 50.03710938 C-17.43402623 49.81252551 -15.4358144 49.59326764 -13.4375 49.375 C-13.12296875 49.92929688 -12.8084375 50.48359375 -12.484375 51.0546875 C-12.05640625 51.77914062 -11.6284375 52.50359375 -11.1875 53.25 C-10.76984375 53.96929687 -10.3521875 54.68859375 -9.921875 55.4296875 C-8.20920625 57.67418496 -7.08932438 58.43990822 -4.4375 59.375 C2.24878575 60.16342879 7.63469086 59.53649821 13.5625 56.375 C13.5625 54.065 13.5625 51.755 13.5625 49.375 C9.87367322 47.71026108 6.27188235 46.82541737 2.33105469 46.03198242 C-19.8570432 41.56322329 -19.8570432 41.56322329 -26.3515625 33.21875 C-29.7732745 27.40922459 -30.20900753 21.99629244 -29.4375 15.375 C-26.33452581 8.79669472 -20.29442056 3.71341515 -13.58081055 0.97045898 C-9.13647992 -0.26427417 -4.57858325 -0.05299968 0 0 Z " fill="#FEFAFA" transform="translate(983.4375,58.625)"/>
<path d="M0 0 C6.6 0 13.2 0 20 0 C20 26.4 20 52.8 20 80 C36.17 80 52.34 80 69 80 C69 85.61 69 91.22 69 97 C46.23 97 23.46 97 0 97 C0 64.99 0 32.98 0 0 Z " fill="#FDF8F9" transform="translate(208,34)"/>
<path d="M0 0 C5.8770717 4.46809771 8.70588502 10.8793738 10.99609375 17.75 C11.91507855 26.37532876 10.63117286 32.44705559 5.99609375 39.75 C5.41859375 40.678125 4.84109375 41.60625 4.24609375 42.5625 C-2.57733742 49.19639142 -10.13350677 51.12834704 -19.32910156 51.20751953 C-27.04346519 51.04971834 -31.93537219 48.51491211 -37.57421875 43.296875 C-38.87890625 41.875 -38.87890625 41.875 -41.00390625 38.75 C-41.39449219 38.2240625 -41.78507812 37.698125 -42.1875 37.15625 C-46.42452016 30.47084795 -45.9915442 22.31937787 -45.00390625 14.75 C-41.88089378 6.14240379 -35.0403373 -0.12318405 -27.00390625 -4.25 C-17.43697565 -7.15900245 -8.32449464 -5.19266722 0 0 Z " fill="#F9E5E7" transform="translate(113.00390625,117.25)"/>
<path d="M0 0 C1.31445088 0.88368514 2.60988641 1.79702142 3.875 2.75 C5.23625 3.6471875 5.23625 3.6471875 6.625 4.5625 C11.25989519 9.06864811 14.67959169 14.54831007 15.078125 21.078125 C15.20508991 31.70085569 14.22478341 37.83326068 6.84375 45.88671875 C-0.07964044 52.43921328 -6.57728878 54.17775822 -15.94921875 54.09765625 C-24.31027486 53.18236228 -30.26292561 48.44772792 -35.4609375 42.125 C-40.04040969 36.19551 -41.73754992 29.97717993 -41.56640625 22.50390625 C-40.34200316 14.86493124 -36.21392245 7.51581339 -29.9453125 2.9296875 C-29.34460938 2.54039063 -28.74390625 2.15109375 -28.125 1.75 C-27.56554687 1.34007812 -27.00609375 0.93015625 -26.4296875 0.5078125 C-18.89243241 -4.22336494 -7.73523562 -4.18506048 0 0 Z " fill="#CF2029" transform="translate(140.125,33.25)"/>
<path d="M0 0 C5.94 0 11.88 0 18 0 C18 23.1 18 46.2 18 70 C12.06 70 6.12 70 0 70 C0 46.9 0 23.8 0 0 Z " fill="#FFFFFF" transform="translate(284,61)"/>
<path d="M0 0 C5.2287958 2.56506964 9.3776477 6.7552954 12 12 C12.31728119 15.03385082 12.32434666 18.07658975 12.375 21.125 C12.43107422 22.37023437 12.43107422 22.37023437 12.48828125 23.640625 C12.57815514 30.01168529 11.00167078 34.04764794 7 39 C3.25772735 42.65099771 0.14013862 43.33376387 -4.9375 43.625 C-10.07504716 43.43401312 -13.05131252 42.56303589 -16.59765625 38.80859375 C-17.06042969 38.21175781 -17.52320313 37.61492187 -18 37 C-18.64775391 36.18208984 -18.64775391 36.18208984 -19.30859375 35.34765625 C-23.34661945 28.96226612 -22.76240938 21.2508309 -22 14 C-20.57530838 8.22109463 -17.14948983 4.39452104 -12.28125 1.0703125 C-8.18556696 -0.85129221 -4.39232724 -0.85631926 0 0 Z " fill="#CE2029" transform="translate(773,74)"/>
<path d="M0 0 C4.91570908 2.87209969 8.5753732 6.33070241 10.35546875 11.921875 C11.81278042 19.4944478 11.65733773 28.26995307 7.7734375 35.09375 C4.63942738 38.53245555 1.17138841 41.81538091 -3.58203125 42.3671875 C-9.25565461 42.57065537 -13.1107608 42.35050986 -17.69140625 38.87109375 C-22.82507493 32.92753332 -23.87086027 28.18504432 -23.7265625 20.53125 C-23.74203125 19.70689453 -23.7575 18.88253906 -23.7734375 18.03320312 C-23.72862088 11.02500493 -21.37603619 7.45292844 -16.6640625 2.28125 C-12.0825011 -1.83040767 -5.65844593 -2.30308677 0 0 Z " fill="#CE2028" transform="translate(851.2265625,74.90625)"/>
<path d="M0 0 C5.06570129 2.89329477 9.36038079 6.79713577 11.78125 12.16015625 C12.91899643 18.66281468 12.42797961 24.73088244 9.0546875 30.47265625 C6.06408231 34.43566681 2.76019771 37.24903643 -2.21875 38.16015625 C-8.50749883 38.70791997 -13.67254189 38.46654955 -19.21875 35.16015625 C-24.60982127 30.22975389 -26.83450902 25.56343349 -27.65625 18.28515625 C-27.49553417 12.68153109 -24.54421519 8.50941136 -20.69140625 4.6171875 C-14.54916654 -0.71233856 -7.91246931 -2.9950368 0 0 Z " fill="#CE1F28" transform="translate(48.21875,61.83984375)"/>
<path d="M0 0 C5.36488733 2.21593172 9.8587733 5.71750245 12.4140625 11.015625 C13.99364765 16.36515337 13.43963616 21.37884167 12 26.6875 C9.22511783 31.28339859 5.27777091 35.88123987 0.04296875 37.66796875 C-4.90175547 38.47160462 -9.68782942 39.17581371 -14.2890625 36.8359375 C-18.99590521 33.39835575 -23.12223239 29.63330284 -25 24 C-25.73901861 17.17922168 -25.18333836 11.57778448 -21 6 C-15.2252499 -0.64025318 -8.45281017 -1.53969281 0 0 Z " fill="#F9E7E8" transform="translate(70,8)"/>
<path d="M0 0 C4.45067139 2.62475492 7.80498772 6.53996317 9.4375 11.4375 C9.69069543 14.68300512 9.66879677 17.93313798 9.6875 21.1875 C9.708125 22.06921875 9.72875 22.9509375 9.75 23.859375 C9.79250451 31.00013284 8.74793676 35.78049772 3.9375 41.3125 C0.92673826 43.87164748 -0.90026991 44.37382403 -4.8125 44.75 C-9.30764607 44.37540449 -12.07401622 43.25944965 -15.5625 40.4375 C-20.69254974 33.95743717 -20.78894078 28.51437233 -20.875 20.5625 C-20.91850586 19.23412109 -20.91850586 19.23412109 -20.96289062 17.87890625 C-21.03081702 10.8668119 -19.19038518 7.38391671 -14.5 2.125 C-10.33047596 -1.50652094 -5.17077861 -1.13504896 0 0 Z " fill="#CE1F27" transform="translate(353.5625,73.5625)"/>
<path d="M0 0 C4.37410621 2.51000113 7.55145937 5.38149336 9.52734375 10.07421875 C10.2325144 16.25180745 10.51215252 21.9152149 7.90234375 27.63671875 C2.77734626 32.89658459 -1.10518046 36.18457903 -8.72265625 36.38671875 C-14.28448701 36.31334367 -17.08048693 35.50011082 -21.47265625 32.07421875 C-26.37384592 26.57314388 -27.87421143 21.70023331 -27.7421875 14.37890625 C-27.09791802 8.86993534 -23.99948086 5.22388774 -20.03515625 1.63671875 C-14.12902887 -2.46997169 -6.62781222 -2.48150315 0 0 Z " fill="#CE1F28" transform="translate(104.47265625,122.92578125)"/>
<path d="M0 0 C4.44847842 -0.0921434 8.89361053 -0.17167434 13.34228516 -0.21972656 C14.85346736 -0.23976791 16.36457272 -0.26700905 17.87548828 -0.30175781 C20.05520643 -0.35061109 22.23389431 -0.37304224 24.4140625 -0.390625 C25.7232666 -0.41157227 27.0324707 -0.43251953 28.38134766 -0.45410156 C33.35151158 0.16960002 36.22446514 2.40201863 39.875 5.6875 C41.6815634 9.40099143 41.64441979 12.95836721 41 17 C38.9949912 20.8026029 37.57313738 22.61790841 34 25 C31.38590855 25.17145815 28.88130326 25.23233432 26.26953125 25.1953125 C25.51911057 25.1924826 24.76868988 25.18965271 23.99552917 25.18673706 C21.60102325 25.17555062 19.20689269 25.15044928 16.8125 25.125 C15.18815645 25.11496819 13.56380703 25.10584269 11.93945312 25.09765625 C7.9593748 25.0773186 3.98010709 25.03816832 0 25 C0 16.75 0 8.5 0 0 Z " fill="#CE1D25" transform="translate(665,89)"/>
<path d="M0 0 C5.86446306 2.82697194 9.54179999 7.05934997 12 13 C12.84652969 18.92570786 11.93021712 22.35789392 8.46484375 27.234375 C5.42082774 30.90342896 2.96746962 32.74019658 -1.83984375 33.375 C-6.64061496 33.56489454 -10.10724032 33.41449557 -14.5 31.375 C-19.46760804 26.65577236 -21.27699574 23.45931179 -21.625 16.5625 C-21.48921816 12.15210468 -21.1498183 9.31350719 -18.3125 5.875 C-16.62890625 4.30078125 -16.62890625 4.30078125 -15 3 C-14.2575 2.360625 -13.515 1.72125 -12.75 1.0625 C-8.4350197 -0.60465148 -4.54951718 -0.84481141 0 0 Z " fill="#F9E4E5" transform="translate(153,110)"/>
<path d="M0 0 C4.32439848 -0.09206289 8.64537132 -0.17161666 12.9699707 -0.21972656 C14.43948921 -0.23978825 15.90892841 -0.26704478 17.37817383 -0.30175781 C19.49580487 -0.35052141 21.61237687 -0.37302161 23.73046875 -0.390625 C25.00301514 -0.41157227 26.27556152 -0.43251953 27.58666992 -0.45410156 C31.57882177 0.07700511 33.16222828 1.20879183 36 4 C38.28582634 7.26546621 38.40058025 10.07431352 38 14 C36.04025601 18.68161064 33.60582322 20.09181511 29 22 C25.65673828 22.34057617 25.65673828 22.34057617 22.0703125 22.29296875 C20.78125 22.28330078 19.4921875 22.27363281 18.1640625 22.26367188 C16.81770214 22.23861188 15.47134797 22.21321712 14.125 22.1875 C12.75522295 22.17243504 11.38542998 22.15874982 10.015625 22.14648438 C6.67691255 22.11121629 3.33840508 22.05741206 0 22 C0 14.74 0 7.48 0 0 Z " fill="#CE1D26" transform="translate(665,50)"/>
<path d="M0 0 C4.004793 2.0023965 6.6587028 4.17998877 9 8 C10.71939923 13.15819768 10.62458192 18.08951412 8.9375 23.25 C5.89678389 27.56585512 2.85789044 30.47997247 -2.46875 31.44921875 C-8.12758409 31.69636662 -11.63734977 30.84328711 -16 27 C-20.06759864 23.26220666 -20.78175985 19.75800263 -21.08984375 14.42578125 C-20.90049166 9.31327486 -18.42838823 6.16876668 -15 2.625 C-10.42774008 -1.06387213 -5.6141239 -0.99919551 0 0 Z " fill="#F9E4E5" transform="translate(46,125)"/>
<path d="M0 0 C3.62531608 1.8741654 5.69121639 4.07364917 7 8 C7.39334294 13.211794 6.97343088 16.63896805 4 21 C-0.32518976 23.94899302 -3.81962079 24.6475474 -9 24 C-12.70390021 21.97333762 -14.65363011 20.51955484 -17 17 C-17.66624845 12.92536476 -17.94496094 8.75643297 -15.94921875 5.046875 C-11.37953499 -0.50684096 -6.86985648 -0.95736132 0 0 Z " fill="#CE1F28" transform="translate(69,15)"/>
<path d="M0 0 C4.06219391 0.04520725 6.5258907 0.61209239 9.75 3.25 C12.43121076 7.27181615 12.56344335 10.52236391 11.75 15.25 C10.03922026 18.3217718 7.94028693 20.65485654 4.75 22.25 C0.82000654 22.94167885 -2.7319637 23.23225878 -6.17578125 21.00390625 C-9.24521997 17.83190872 -10.65581548 15.05041211 -10.9375 10.625 C-10.7010039 6.97798117 -10.25365059 6.25449304 -7.8125 3.25 C-6.966875 2.59 -6.12125 1.93 -5.25 1.25 C-3.68966377 -0.31033623 -2.16052864 0.04292441 0 0 Z " fill="#CE1E26" transform="translate(147.25,115.75)"/>
<path d="M0 0 C3.43883538 2.29255692 4.93552768 4.19057286 6.8125 7.875 C7.1425 10.515 7.4725 13.155 7.8125 15.875 C-1.4275 15.875 -10.6675 15.875 -20.1875 15.875 C-19.03432081 5.49638728 -19.03432081 5.49638728 -14.1875 0.875 C-9.84476112 -2.30967518 -4.87855492 -1.72184291 0 0 Z " fill="#CF252C" transform="translate(425.1875,74.125)"/>
<path d="M0 0 C3.71168084 0.96768822 5.55692692 2.80821076 8.1875 5.5703125 C9.62054064 8.43639379 9.49394155 10.38332033 9.1875 13.5703125 C7.14756092 17.2281343 5.68330738 19.23977424 2.1875 21.5703125 C-2.78759769 22.14122535 -4.84975016 22.11295332 -9.25 19.6328125 C-12.10101495 16.22550195 -12.97353901 14.23799376 -13.1640625 9.86328125 C-12.62686487 6.35955891 -11.24403607 4.31247291 -8.7578125 1.83203125 C-5.81589175 -0.07608201 -3.45209205 -0.26823688 0 0 Z " fill="#CE1F28" transform="translate(42.8125,129.4296875)"/>
<path d="M0 0 C6.27 0 12.54 0 19 0 C19 5.94 19 11.88 19 18 C12.73 18 6.46 18 0 18 C0 12.06 0 6.12 0 0 Z " fill="#FCF1F2" transform="translate(283,33)"/>
<path d="M0 0 C9.76991826 -0.62583106 9.76991826 -0.62583106 14.5625 1.8125 C17 4 17 4 19 7 C19.125 9.6875 19.125 9.6875 19 12 C18.443125 11.566875 17.88625 11.13375 17.3125 10.6875 C12.48415712 7.16411465 9.04487359 5.59263467 3 5 C3 4.67 3 4.34 3 4 C5.3260857 3.61936779 7.66055264 3.28730055 10 3 C10.33 3.33 10.66 3.66 11 4 C11.33 3.34 11.66 2.68 12 2 C10.046875 2.06510417 8.09375 2.13020833 6.140625 2.1953125 C3.69844025 1.97248542 2.11363229 1.20915 0 0 Z " fill="#F8DFE0" transform="translate(35,125)"/>
<path d="M0 0 C0.66 0.33 1.32 0.66 2 1 C2.92867074 3.78601223 3.16342217 5.61066089 3.1875 8.5 C3.20167969 9.2734375 3.21585938 10.046875 3.23046875 10.84375 C3 13 3 13 1 16 C1 14.68 1 13.36 1 12 C0.34 12 -0.32 12 -1 12 C-1.66 8.37 -2.32 4.74 -3 1 C-2.01 1.99 -1.02 2.98 0 4 C0 2.68 0 1.36 0 0 Z " fill="#FCF3F4" transform="translate(53,132)"/>
<path d="M0 0 C0.33 0 0.66 0 1 0 C0.67 6.6 0.34 13.2 0 20 C-0.66 20.33 -1.32 20.66 -2 21 C-2.05791844 17.87507749 -2.09356746 14.75029234 -2.125 11.625 C-2.14175781 10.73554687 -2.15851563 9.84609375 -2.17578125 8.9296875 C-2.18222656 8.07890625 -2.18867188 7.228125 -2.1953125 6.3515625 C-2.20578613 5.56604004 -2.21625977 4.78051758 -2.22705078 3.97119141 C-2 2 -2 2 0 0 Z " fill="#C8070D" transform="translate(385,83)"/>
<path d="M0 0 C1.485 0.99 1.485 0.99 3 2 C3.22107787 4.7885289 3.28107535 7.34653181 3.1875 10.125 C3.17396484 10.87910156 3.16042969 11.63320312 3.14648438 12.41015625 C3.11109985 14.27374127 3.05729167 16.13695978 3 18 C2.01 17.34 1.02 16.68 0 16 C-0.22107787 13.2114711 -0.28107535 10.65346819 -0.1875 7.875 C-0.17396484 7.12089844 -0.16042969 6.36679688 -0.14648438 5.58984375 C-0.11109985 3.72625873 -0.05729167 1.86304022 0 0 Z " fill="#C9060E" transform="translate(805,87)"/>
<path d="M0 0 C3.96 0.33 7.92 0.66 12 1 C11.67 1.99 11.34 2.98 11 4 C10.34 3.67 9.68 3.34 9 3 C6.54606637 3.32046309 6.54606637 3.32046309 3.875 3.9375 C2.96492188 4.13214844 2.05484375 4.32679688 1.1171875 4.52734375 C0.41851562 4.68332031 -0.28015625 4.83929688 -1 5 C-0.67 3.35 -0.34 1.7 0 0 Z " fill="#FCF1F2" transform="translate(35,126)"/>
</svg>
